<svg id="Capa_1" enable-background="new 0 0 512 512" height="512" viewBox="0 0 512 512" width="512" xmlns="http://www.w3.org/2000/svg"><g><path d="m166 320.84v26.16c0 19.75 12.795 36.557 30.527 42.598 5.666 68.554 57.081 122.402 119.473 122.402s113.807-53.848 119.473-122.402c17.732-6.041 30.527-22.848 30.527-42.598 0-24.813-20.187-45-45-45s-45 20.187-45 45c0 19.326 12.248 35.843 29.389 42.204-5.2 52.168-43.301 92.796-89.389 92.796s-84.189-40.628-89.389-92.796c17.141-6.361 29.389-22.878 29.389-42.204v-26.16c68.398-34.115 120-143.964 120-213.84 0-38.479-3.476-57.554-35.967-74.242-9.513-9.732-34.137-32.758-54.033-32.758-24.813 0-45 20.187-45 45s20.187 45 45 45c16.364 0 35.921-15.575 47.646-26.522 10.584 6.837 12.354 14.784 12.354 43.522 0 70.31-64.269 195-135 195-70.68 0-135-124.632-135-195 0-28.738 1.77-36.685 12.354-43.522 11.725 10.947 31.282 26.522 47.646 26.522 24.813 0 45-20.187 45-45s-20.187-45-45-45c-19.896 0-44.52 23.026-54.033 32.758-32.491 16.688-35.967 35.763-35.967 74.242 0 68.216 50.38 179.115 120 213.84zm255 11.16c8.271 0 15 6.729 15 15s-6.729 15-15 15-15-6.729-15-15 6.729-15 15-15zm-135-272c-8.271 0-15-6.729-15-15s6.729-15 14.968-15c3.917.19 13.637 6.64 23.295 15-9.658 8.363-19.368 14.811-23.263 15zm-60 270.75v16.25c0 8.271-6.729 15-15 15s-15-6.729-15-15v-16.25c10.128 1.665 19.871 1.666 30 0zm-90-300.75c8.271 0 15 6.729 15 15s-6.729 15-14.968 15c-3.917-.19-13.637-6.64-23.295-15 9.658-8.363 19.368-14.811 23.263-15z"/></g></svg>